<?xml version="1.0" encoding="UTF-8" standalone="no"?>
<svg
   xmlns:dc="http://purl.org/dc/elements/1.1/"
   xmlns:cc="http://creativecommons.org/ns#"
   xmlns:rdf="http://www.w3.org/1999/02/22-rdf-syntax-ns#"
   xmlns:svg="http://www.w3.org/2000/svg"
   xmlns="http://www.w3.org/2000/svg"
   xmlns:sodipodi="http://sodipodi.sourceforge.net/DTD/sodipodi-0.dtd"
   xmlns:inkscape="http://www.inkscape.org/namespaces/inkscape"
   width="90mm"
   height="30mm"
   viewBox="0 0 90 30"
   version="1.1"
   id="svg8"
   inkscape:version="1.0.2 (e86c8708, 2021-01-15)"
   sodipodi:docname="logo.svg">
  <defs
     id="defs2">
    <rect
       x="87.690475"
       y="96.761902"
       width="70.303574"
       height="34.017857"
       id="rect26" />
  </defs>
  <sodipodi:namedview
     id="base"
     pagecolor="#ffffff"
     bordercolor="#666666"
     borderopacity="1.0"
     inkscape:pageopacity="0.0"
     inkscape:pageshadow="2"
     inkscape:zoom="0.35"
     inkscape:cx="400"
     inkscape:cy="560"
     inkscape:document-units="mm"
     inkscape:current-layer="layer1"
     inkscape:document-rotation="0"
     showgrid="false"
     inkscape:snap-global="false"
     inkscape:window-width="1252"
     inkscape:window-height="649"
     inkscape:window-x="0"
     inkscape:window-y="23"
     inkscape:window-maximized="0" />
  <metadata
     id="metadata5">
    <rdf:RDF>
      <cc:Work
         rdf:about="">
        <dc:format>image/svg+xml</dc:format>
        <dc:type
           rdf:resource="http://purl.org/dc/dcmitype/StillImage" />
        <dc:title></dc:title>
      </cc:Work>
    </rdf:RDF>
  </metadata>
  <g
     inkscape:label="Layer 1"
     inkscape:groupmode="layer"
     id="layer1">
    <rect
       style="fill:#ffcc00;stroke:#241f1c;stroke-width:0.925357;stroke-miterlimit:4;stroke-dasharray:none"
       id="rect859"
       width="82.417503"
       height="24.96512"
       x="4.904345"
       y="2.6365063" />
    <path
       d="M 30.821633,5.4078256 C 26.171619,5.9471716 21.85934,8.1559316 17.452327,12.270397 14.08323,15.40889 11.352528,18.917228 6.6325001,26.159914 l -0.7166545,1.10438 5.1730864,0.01544 c 2.846025,0.0051 5.193681,0 5.218396,-0.01029 0.02472,-0.01029 0.3089,-0.47771 0.634281,-1.042738 2.409442,-4.160689 4.065158,-6.42082 6.425175,-8.778546 2.553593,-2.558055 4.645894,-3.944949 6.828808,-4.545937 2.211744,-0.611266 4.785933,-0.261971 6.701125,0.898912 1.721622,1.047878 2.763651,2.609419 3.117855,4.674353 0.131799,0.770503 0.123564,2.085484 -0.0206,2.90735 -0.551908,3.236095 -2.763652,5.342122 -5.609677,5.352393 -0.704294,0.0051 -1.198537,-0.08732 -1.771039,-0.323606 -0.827858,-0.344156 -1.46626,-0.981103 -1.787515,-1.792692 -0.218292,-0.559895 -0.292431,-0.996514 -0.292431,-1.79783 0,-1.022196 0.102969,-1.597502 0.424229,-2.388547 0.222406,-0.539346 0.807264,-1.28416 1.268557,-1.607773 0.3954,-0.277375 0.980251,-0.539346 1.528038,-0.688312 0.362445,-0.09246 0.560148,-0.113005 1.330341,-0.113005 0.498363,-0.0051 1.021442,0.01029 1.165594,0.03081 0.148273,0.02566 0.255362,0.02052 0.255362,-0.01029 0,-0.02566 -0.111209,-0.226011 -0.243007,-0.452029 -0.510718,-0.842409 -1.301506,-1.443397 -2.331181,-1.767003 -0.329496,-0.102734 -0.465414,-0.118144 -1.276797,-0.118144 -0.683706,0.0051 -1.000846,0.02566 -1.297392,0.09246 -3.352623,0.775635 -6.06685,3.528887 -8.554544,8.691222 -0.362445,0.744814 -1.206778,2.681339 -1.206778,2.758384 0,0.06162 13.422844,0.05139 14.188924,-0.01029 3.196115,-0.251693 5.671455,-1.397173 7.228323,-3.33883 0.984372,-1.232796 1.57746,-2.691603 1.832822,-4.520255 0.107083,-0.755085 0.131798,-2.958713 0.0412,-3.652164 -0.704301,-5.414035 -3.813913,-9.0096894 -8.69046,-10.0627064 -1.029675,-0.220878 -1.544513,-0.261971 -3.294958,-0.282514 -0.926706,-0.01029 -1.865774,0.0051 -2.079946,0.02566 z"
       id="path10"
       style="fill:#000000;stroke:#000000;stroke-width:1.09392;stroke-miterlimit:4;stroke-dasharray:none" />
    <text
       xml:space="preserve"
       id="text24"
       style="font-style:normal;font-variant:normal;font-weight:bold;font-stretch:normal;font-size:26.51419999999999888px;line-height:1.25;font-family:'Bangla MN';-inkscape-font-specification:'Bangla MN Bold';white-space:pre;shape-inside:url(#rect26);fill:#ffe680;fill-opacity:1;stroke:#ffcc00;"
       transform="matrix(0.80018108,0,0,0.8750097,-24.007024,-82.698679)"><tspan
         x="87.691406"
         y="122.5422"><tspan
           style="font-style:normal;font-variant:normal;font-weight:bold;font-stretch:normal;font-size:28.1714px;font-family:'DIN Alternate';-inkscape-font-specification:'DIN Alternate Bold';fill:#ffe680;stroke:#000000">CAS</tspan></tspan></text>
  </g>
</svg>
